<mxfile>
    <diagram id="5VSpfkpJWyuLO5u3a6W-" name="Page-1">
        <mxGraphModel dx="1097" dy="790" grid="1" gridSize="10" guides="1" tooltips="1" connect="1" arrows="1" fold="1" page="1" pageScale="1" pageWidth="827" pageHeight="1169" math="0" shadow="0">
            <root>
                <mxCell id="0"/>
                <mxCell id="1" parent="0"/>
                <mxCell id="6" value="station" style="shape=umlLifeline;perimeter=lifelinePerimeter;whiteSpace=wrap;html=1;container=1;collapsible=0;recursiveResize=0;outlineConnect=0;" parent="1" vertex="1">
                    <mxGeometry x="260" y="40" width="100" height="580" as="geometry"/>
                </mxCell>
                <mxCell id="35" value="" style="html=1;points=[];perimeter=orthogonalPerimeter;" vertex="1" parent="6">
                    <mxGeometry x="45.5" y="65" width="10" height="225" as="geometry"/>
                </mxCell>
                <mxCell id="22" value="" style="endArrow=block;startArrow=block;endFill=1;startFill=1;html=1;" edge="1" parent="6" target="7">
                    <mxGeometry width="160" relative="1" as="geometry">
                        <mxPoint x="45.5" y="150" as="sourcePoint"/>
                        <mxPoint x="238.75" y="150" as="targetPoint"/>
                        <Array as="points">
                            <mxPoint x="152.5" y="150"/>
                        </Array>
                    </mxGeometry>
                </mxCell>
                <mxCell id="23" value="rpc 状态维护" style="edgeLabel;html=1;align=center;verticalAlign=middle;resizable=0;points=[];" vertex="1" connectable="0" parent="22">
                    <mxGeometry x="0.1419" y="3" relative="1" as="geometry">
                        <mxPoint as="offset"/>
                    </mxGeometry>
                </mxCell>
                <mxCell id="24" value="" style="endArrow=block;startArrow=block;endFill=1;startFill=1;html=1;" edge="1" parent="6" target="7">
                    <mxGeometry width="160" relative="1" as="geometry">
                        <mxPoint x="45.5" y="200" as="sourcePoint"/>
                        <mxPoint x="288.75" y="200" as="targetPoint"/>
                        <Array as="points">
                            <mxPoint x="152.5" y="200"/>
                        </Array>
                    </mxGeometry>
                </mxCell>
                <mxCell id="25" value="MQ订阅" style="edgeLabel;html=1;align=center;verticalAlign=middle;resizable=0;points=[];" vertex="1" connectable="0" parent="24">
                    <mxGeometry x="0.1419" y="3" relative="1" as="geometry">
                        <mxPoint as="offset"/>
                    </mxGeometry>
                </mxCell>
                <mxCell id="7" value="center" style="shape=umlLifeline;perimeter=lifelinePerimeter;whiteSpace=wrap;html=1;container=1;collapsible=0;recursiveResize=0;outlineConnect=0;" parent="1" vertex="1">
                    <mxGeometry x="515" y="40" width="100" height="550" as="geometry"/>
                </mxCell>
                <mxCell id="44" value="" style="endArrow=block;startArrow=block;endFill=1;startFill=1;html=1;" edge="1" parent="7" target="38">
                    <mxGeometry width="160" relative="1" as="geometry">
                        <mxPoint x="55" y="170" as="sourcePoint"/>
                        <mxPoint x="215" y="170" as="targetPoint"/>
                    </mxGeometry>
                </mxCell>
                <mxCell id="45" value="登录" style="edgeLabel;html=1;align=center;verticalAlign=middle;resizable=0;points=[];" vertex="1" connectable="0" parent="44">
                    <mxGeometry x="0.1128" y="-5" relative="1" as="geometry">
                        <mxPoint as="offset"/>
                    </mxGeometry>
                </mxCell>
                <mxCell id="16" value="" style="endArrow=block;startArrow=block;endFill=1;startFill=1;html=1;" parent="1" source="6" target="7" edge="1">
                    <mxGeometry width="160" relative="1" as="geometry">
                        <mxPoint x="260" y="120" as="sourcePoint"/>
                        <mxPoint x="420" y="120" as="targetPoint"/>
                        <Array as="points">
                            <mxPoint x="470" y="120"/>
                        </Array>
                    </mxGeometry>
                </mxCell>
                <mxCell id="46" value="http登录，返回工作站信息&lt;br&gt;(icences、rpc、mq...)&lt;br&gt;等信息" style="edgeLabel;html=1;align=center;verticalAlign=middle;resizable=0;points=[];" vertex="1" connectable="0" parent="16">
                    <mxGeometry x="-0.1098" y="3" relative="1" as="geometry">
                        <mxPoint as="offset"/>
                    </mxGeometry>
                </mxCell>
                <mxCell id="21" value="sub serve" style="shape=umlLifeline;perimeter=lifelinePerimeter;whiteSpace=wrap;html=1;container=1;collapsible=0;recursiveResize=0;outlineConnect=0;" parent="1" vertex="1">
                    <mxGeometry x="30" y="40" width="160" height="580" as="geometry"/>
                </mxCell>
                <mxCell id="20" value="启动子服务" style="html=1;points=[];perimeter=orthogonalPerimeter;" parent="21" vertex="1">
                    <mxGeometry x="75" y="340" width="10" height="80" as="geometry"/>
                </mxCell>
                <mxCell id="26" value="" style="endArrow=block;startArrow=block;endFill=1;startFill=1;html=1;" edge="1" parent="1" target="7">
                    <mxGeometry width="160" relative="1" as="geometry">
                        <mxPoint x="310" y="280" as="sourcePoint"/>
                        <mxPoint x="550" y="280" as="targetPoint"/>
                        <Array as="points">
                            <mxPoint x="407" y="280"/>
                        </Array>
                    </mxGeometry>
                </mxCell>
                <mxCell id="27" value="http 获取设备列表" style="edgeLabel;html=1;align=center;verticalAlign=middle;resizable=0;points=[];" vertex="1" connectable="0" parent="26">
                    <mxGeometry x="0.1419" y="3" relative="1" as="geometry">
                        <mxPoint x="1" as="offset"/>
                    </mxGeometry>
                </mxCell>
                <mxCell id="29" value="" style="endArrow=block;startArrow=block;endFill=1;startFill=1;html=1;" edge="1" parent="1">
                    <mxGeometry width="160" relative="1" as="geometry">
                        <mxPoint x="310" y="350" as="sourcePoint"/>
                        <mxPoint x="770" y="351" as="targetPoint"/>
                        <Array as="points">
                            <mxPoint x="417" y="350"/>
                        </Array>
                    </mxGeometry>
                </mxCell>
                <mxCell id="39" value="Text" style="edgeLabel;html=1;align=center;verticalAlign=middle;resizable=0;points=[];" vertex="1" connectable="0" parent="29">
                    <mxGeometry x="0.774" y="-4" relative="1" as="geometry">
                        <mxPoint as="offset"/>
                    </mxGeometry>
                </mxCell>
                <mxCell id="40" value="Proxy 添加子服务" style="edgeLabel;html=1;align=center;verticalAlign=middle;resizable=0;points=[];" vertex="1" connectable="0" parent="29">
                    <mxGeometry x="0.0174" relative="1" as="geometry">
                        <mxPoint as="offset"/>
                    </mxGeometry>
                </mxCell>
                <mxCell id="30" value="添加子服务" style="text;html=1;align=center;verticalAlign=middle;resizable=0;points=[];autosize=1;" vertex="1" parent="1">
                    <mxGeometry x="480" y="305" width="80" height="20" as="geometry"/>
                </mxCell>
                <mxCell id="31" value="" style="endArrow=block;startArrow=block;endFill=1;startFill=1;html=1;" edge="1" parent="1">
                    <mxGeometry width="160" relative="1" as="geometry">
                        <mxPoint x="107" y="400" as="sourcePoint"/>
                        <mxPoint x="310" y="400" as="targetPoint"/>
                        <Array as="points">
                            <mxPoint x="214" y="400"/>
                        </Array>
                    </mxGeometry>
                </mxCell>
                <mxCell id="32" value="启动获取服务配置信息" style="edgeLabel;html=1;align=center;verticalAlign=middle;resizable=0;points=[];" vertex="1" connectable="0" parent="31">
                    <mxGeometry x="0.1029" y="3" relative="1" as="geometry">
                        <mxPoint as="offset"/>
                    </mxGeometry>
                </mxCell>
                <mxCell id="33" value="" style="endArrow=block;startArrow=block;endFill=1;startFill=1;html=1;" edge="1" parent="1">
                    <mxGeometry width="160" relative="1" as="geometry">
                        <mxPoint x="100" y="460" as="sourcePoint"/>
                        <mxPoint x="310" y="460" as="targetPoint"/>
                        <Array as="points">
                            <mxPoint x="207" y="460"/>
                        </Array>
                    </mxGeometry>
                </mxCell>
                <mxCell id="34" value="rpc 状态维护" style="edgeLabel;html=1;align=center;verticalAlign=middle;resizable=0;points=[];" vertex="1" connectable="0" parent="33">
                    <mxGeometry x="0.1419" y="3" relative="1" as="geometry">
                        <mxPoint as="offset"/>
                    </mxGeometry>
                </mxCell>
                <mxCell id="38" value="client" style="shape=umlLifeline;perimeter=lifelinePerimeter;whiteSpace=wrap;html=1;container=1;collapsible=0;recursiveResize=0;outlineConnect=0;" vertex="1" parent="1">
                    <mxGeometry x="720" y="40" width="100" height="550" as="geometry"/>
                </mxCell>
                <mxCell id="41" value="" style="endArrow=block;startArrow=block;endFill=1;startFill=1;html=1;" edge="1" parent="1">
                    <mxGeometry width="160" relative="1" as="geometry">
                        <mxPoint x="310" y="390" as="sourcePoint"/>
                        <mxPoint x="770" y="391" as="targetPoint"/>
                        <Array as="points">
                            <mxPoint x="417" y="390"/>
                        </Array>
                    </mxGeometry>
                </mxCell>
                <mxCell id="42" value="Text" style="edgeLabel;html=1;align=center;verticalAlign=middle;resizable=0;points=[];" vertex="1" connectable="0" parent="41">
                    <mxGeometry x="0.774" y="-4" relative="1" as="geometry">
                        <mxPoint as="offset"/>
                    </mxGeometry>
                </mxCell>
                <mxCell id="43" value="Proxy 访问数据记录" style="edgeLabel;html=1;align=center;verticalAlign=middle;resizable=0;points=[];" vertex="1" connectable="0" parent="41">
                    <mxGeometry x="0.0174" relative="1" as="geometry">
                        <mxPoint as="offset"/>
                    </mxGeometry>
                </mxCell>
            </root>
        </mxGraphModel>
    </diagram>
</mxfile>